<svg xmlns="http://www.w3.org/2000/svg" version="1.1" xmlns:xlink="http://www.w3.org/1999/xlink" xmlns:svgjs="http://svgjs.com/svgjs" width="1440" height="560" preserveAspectRatio="none" viewBox="0 0 1440 560"><g mask="url(&quot;#SvgjsMask1005&quot;)" fill="none"><rect width="1440" height="560" x="0" y="0" fill="#1e3266"></rect><path d="M1464 560L0 560 L0 292.33Q56.1 276.43, 72 332.53Q122.1 262.63, 192 312.73Q270.07 270.81, 312 348.88Q357.46 322.34, 384 367.79Q404.15 267.94, 504 288.09Q548.2 260.28, 576 304.48Q645.75 254.23, 696 323.98Q756.87 312.85, 768 373.71Q785.29 319, 840 336.29Q863.95 288.24, 912 312.19Q978.21 258.4, 1032 324.62Q1113.76 286.38, 1152 368.15Q1200.51 296.66, 1272 345.17Q1286.46 287.63, 1344 302.1Q1398.1 236.2, 1464 290.3z" fill="#182f5d"></path><path d="M1464 560L0 560 L0 364.16Q68.76 312.93, 120 381.69Q186.45 328.14, 240 394.59Q282.34 316.93, 360 359.27Q408.4 335.67, 432 384.07Q487.39 367.46, 504 422.85Q505.53 352.38, 576 353.92Q642.1 300.02, 696 366.12Q738.48 336.6, 768 379.07Q832.27 371.35, 840 435.62Q868.41 392.03, 912 420.44Q914.98 351.42, 984 354.4Q1038.84 337.24, 1056 392.07Q1083.88 347.95, 1128 375.83Q1155.98 331.81, 1200 359.8Q1260.32 348.12, 1272 408.44Q1326.55 342.99, 1392 397.54Q1453.08 386.62, 1464 447.7z" fill="#25467d"></path><path d="M1488 560L0 560 L0 450.39Q52.58 382.97, 120 435.55Q209.1 404.65, 240 493.75Q267.94 449.69, 312 477.64Q335.73 429.37, 384 453.1Q435.17 384.27, 504 435.44Q557.1 416.54, 576 469.64Q653.97 427.61, 696 505.58Q749.61 439.19, 816 492.8Q820.73 425.52, 888 430.25Q956.55 426.81, 960 495.36Q981.16 444.52, 1032 465.68Q1079.16 392.84, 1152 440Q1194.36 410.36, 1224 452.71Q1266.97 423.68, 1296 466.65Q1363.53 414.18, 1416 481.71Q1462.03 455.74, 1488 501.77z" fill="#356cb1"></path><path d="M1512 560L0 560 L0 523.55Q57.47 509.01, 72 566.48Q76.23 498.71, 144 502.93Q198.93 437.86, 264 492.79Q310.81 467.61, 336 514.42Q412.59 471.01, 456 547.6Q502.65 522.25, 528 568.91Q561.29 482.2, 648 515.5Q701.21 496.71, 720 549.93Q774.72 532.65, 792 587.37Q846.69 522.06, 912 576.75Q938.19 530.94, 984 557.14Q1015.68 468.82, 1104 500.49Q1148.11 472.6, 1176 516.71Q1244.26 464.98, 1296 533.24Q1313.52 478.75, 1368 496.27Q1411.89 468.16, 1440 512.06Q1495.36 495.42, 1512 550.78z" fill="white"></path></g><defs><mask id="SvgjsMask1005"><rect width="1440" height="560" fill="#ffffff"></rect></mask></defs></svg>